<svg xmlns="http://www.w3.org/2000/svg" viewBox="0 0 168.3 37.57"><title>Asset 8</title><g id="Layer_2" data-name="Layer 2"><g id="Layer_2-2" data-name="Layer 2"><rect width="8.03" height="37.57" rx="3.7"/><path d="M36.53,37.41A10.33,10.33,0,0,1,32,36.46a7.57,7.57,0,0,1-3.06-2.59,6.59,6.59,0,0,1-1.1-3.76,5.52,5.52,0,0,1,1.26-3.8,7.44,7.44,0,0,1,4-2,36.77,36.77,0,0,1,7.43-.6h1.71v-.63a2.82,2.82,0,0,0-.83-2.3,4.64,4.64,0,0,0-2.86-.67,14,14,0,0,0-2.46.24,18.46,18.46,0,0,0-3,.88,2.83,2.83,0,0,1-2.48,0,2.73,2.73,0,0,1-1.28-1.69,3.16,3.16,0,0,1,.23-2.21,3.31,3.31,0,0,1,2-1.64,23.5,23.5,0,0,1,4-1.06A22,22,0,0,1,39,14.27q5.53,0,8.21,2.38c1.79,1.6,2.68,4.1,2.68,7.52v9.1q0,4-3.69,4-3.51,0-3.74-3.6a5.33,5.33,0,0,1-2.16,2.7A6.71,6.71,0,0,1,36.53,37.41Zm1.8-5.22a3.9,3.9,0,0,0,2.81-1.09,3.67,3.67,0,0,0,1.15-2.83v-.81H40.58a10.07,10.07,0,0,0-3.89.56,1.86,1.86,0,0,0-1.24,1.78,2.19,2.19,0,0,0,.74,1.71A3.09,3.09,0,0,0,38.33,32.19Z"/><path d="M58.36,37.32a4,4,0,0,1-3-1,4.15,4.15,0,0,1-1-3V18.36q0-4,3.92-4,3.56,0,3.87,3.46a7.54,7.54,0,0,1,3-2.63,9.35,9.35,0,0,1,4.17-.92c2.64,0,4.59.78,5.87,2.34s1.91,4,1.91,7.2v9.46a4.07,4.07,0,0,1-1,3,4.76,4.76,0,0,1-5.94,0,4.07,4.07,0,0,1-1-3V24.13a4.57,4.57,0,0,0-.7-2.88,2.49,2.49,0,0,0-2-.86,3.75,3.75,0,0,0-2.88,1.15,4.3,4.3,0,0,0-1.08,3.08v8.65Q62.41,37.32,58.36,37.32Z"/><path d="M89.38,37.41a10.33,10.33,0,0,1-4.53-.95,7.57,7.57,0,0,1-3.06-2.59,6.59,6.59,0,0,1-1.1-3.76A5.52,5.52,0,0,1,82,26.31a7.44,7.44,0,0,1,4-2,36.77,36.77,0,0,1,7.43-.6h1.71v-.63a2.82,2.82,0,0,0-.83-2.3,4.64,4.64,0,0,0-2.86-.67,13.78,13.78,0,0,0-2.45.24,18.26,18.26,0,0,0-3,.88,2.81,2.81,0,0,1-2.47,0,2.74,2.74,0,0,1-1.29-1.69,3.16,3.16,0,0,1,.23-2.21,3.31,3.31,0,0,1,2-1.64,23.35,23.35,0,0,1,4-1.06,21.78,21.78,0,0,1,3.35-.29q5.53,0,8.22,2.38c1.78,1.6,2.67,4.1,2.67,7.52v9.1q0,4-3.69,4-3.51,0-3.73-3.6a5.33,5.33,0,0,1-2.16,2.7A6.77,6.77,0,0,1,89.38,37.41Zm1.8-5.22A3.9,3.9,0,0,0,94,31.1a3.67,3.67,0,0,0,1.15-2.83v-.81H93.43a10.07,10.07,0,0,0-3.89.56A1.86,1.86,0,0,0,88.3,29.8,2.23,2.23,0,0,0,89,31.51,3.09,3.09,0,0,0,91.18,32.19Z"/><path d="M111.21,37.32a4,4,0,0,1-2.95-1,4.15,4.15,0,0,1-1-3V18.36q0-4,3.92-4,3.56,0,3.87,3.46a7.54,7.54,0,0,1,3-2.63,9.38,9.38,0,0,1,4.17-.92q4,0,5.87,2.34t1.92,7.2v9.46a4.07,4.07,0,0,1-1,3,4.76,4.76,0,0,1-5.94,0,4.07,4.07,0,0,1-1-3V24.13a4.57,4.57,0,0,0-.7-2.88,2.47,2.47,0,0,0-2-.86,3.79,3.79,0,0,0-2.89,1.15,4.3,4.3,0,0,0-1.08,3.08v8.65Q115.26,37.32,111.21,37.32Z"/><path d="M163.88,37.18a4.22,4.22,0,0,1-3.21-1.24,4.35,4.35,0,0,1-1.2-3.17,4.14,4.14,0,0,1,4.41-4.32,4.1,4.1,0,0,1,4.42,4.32,4.42,4.42,0,0,1-1.17,3.17A4.27,4.27,0,0,1,163.88,37.18Z"/><path d="M12.52,16.94a1.74,1.74,0,0,1-.06-.78,1.56,1.56,0,0,1,.83-.92c.22-.1.94-.42,2.92.39a10.49,10.49,0,0,1,3.12,1.86A10.82,10.82,0,0,1,22,20.92a13.24,13.24,0,0,0-1.51,1.5,13.6,13.6,0,0,0-1.06,1.4A.47.47,0,0,1,19,24l-.6-.07a10.7,10.7,0,0,0-1.5,0A9.39,9.39,0,0,0,16.34,22a9.91,9.91,0,0,0-1.79-2.9A10.34,10.34,0,0,0,13,17.69a1.41,1.41,0,0,1-.5-.74Z"/><path d="M12.45,29.34c.77-1.77.59-1.38.81-1.83a4,4,0,0,1,1.42-1.67,4.82,4.82,0,0,1,2.74-.69,6.51,6.51,0,0,1,2.31.4c.25-.39.62-.95,1.11-1.58a8.11,8.11,0,0,1,2-2.12,4.6,4.6,0,0,1,3-.77,9,9,0,0,1,2.38,1,1.39,1.39,0,0,1,.63.55.94.94,0,0,1,.1.85.92.92,0,0,1-.86.42c-.5,0-.57-.44-1.24-.78a3,3,0,0,0-1.38-.29,2.86,2.86,0,0,0-1.51.4,2.76,2.76,0,0,0-.82.71A9.15,9.15,0,0,1,23.36,26a9.94,9.94,0,0,1-1.53,5.14c-1.08,1.79-2.38,2.73-4.38,4.18a29,29,0,0,1-3.61,2.22,1.06,1.06,0,0,1-.52,0c-.18-.06-.3-.16-.67-.61a6,6,0,0,1-.73-1c-.17-.32-.26-.47-.25-.66,0-.36.32-.62.66-.88a15,15,0,0,1,1.58-1.08c.86-.49,1.24-1.28,2-2.85A12.25,12.25,0,0,0,17,26.93a2.34,2.34,0,0,0-1.33.55,6.12,6.12,0,0,0-1.23,2.17,1.63,1.63,0,0,1-.59.84,1.09,1.09,0,0,1-1,.06,1,1,0,0,1-.46-.56A1,1,0,0,1,12.45,29.34Z"/><path d="M155,24.25a3.58,3.58,0,0,1-2.88-1.42,2.19,2.19,0,0,1-3.12-.1,2.81,2.81,0,0,1-.36-3.4,3.83,3.83,0,0,1-2.22-2.57,3.37,3.37,0,0,1,.42-2.38,21.48,21.48,0,0,0-2.18-.11,21.78,21.78,0,0,0-3.35.29,23.35,23.35,0,0,0-4,1.06,3.31,3.31,0,0,0-2,1.64,3.16,3.16,0,0,0-.23,2.21,2.74,2.74,0,0,0,1.29,1.69,2.81,2.81,0,0,0,2.47,0,18.26,18.26,0,0,1,3-.88,13.78,13.78,0,0,1,2.45-.24,4.64,4.64,0,0,1,2.86.67,2.82,2.82,0,0,1,.83,2.3v.63h-1.71a36.77,36.77,0,0,0-7.43.6,7.44,7.44,0,0,0-4,2,5.52,5.52,0,0,0-1.26,3.8,6.59,6.59,0,0,0,1.1,3.76,7.53,7.53,0,0,0,3.07,2.59,10.26,10.26,0,0,0,4.52.95,6.75,6.75,0,0,0,3.74-1,5.33,5.33,0,0,0,2.16-2.7q.23,3.6,3.73,3.6c2.46,0,3.7-1.35,3.7-4V24.15A2.54,2.54,0,0,1,155,24.25Zm-7,4a3.67,3.67,0,0,1-1.15,2.83A3.9,3.9,0,0,1,144,32.19a3.09,3.09,0,0,1-2.14-.68,2.23,2.23,0,0,1-.74-1.71A1.86,1.86,0,0,1,142.39,28a10.07,10.07,0,0,1,3.89-.56H148Z"/></g></g></svg>