<svg xmlns="http://www.w3.org/2000/svg" viewBox="0 0 29.01 37.57"><defs><style>.cls-1{fill:#eae31a;}</style></defs><title>Asset 2</title><g id="Layer_2" data-name="Layer 2"><g id="Layer_2-2" data-name="Layer 2"><rect class="cls-1" width="8.03" height="37.57" rx="3.7"/><path class="cls-1" d="M12.52,16.94a1.74,1.74,0,0,1-.06-.78,1.56,1.56,0,0,1,.83-.92c.22-.1.94-.42,2.92.39a10.49,10.49,0,0,1,3.12,1.86A10.82,10.82,0,0,1,22,20.92a13.24,13.24,0,0,0-1.51,1.5,13.6,13.6,0,0,0-1.06,1.4A.47.47,0,0,1,19,24l-.6-.07a10.7,10.7,0,0,0-1.5,0A9.39,9.39,0,0,0,16.34,22a9.91,9.91,0,0,0-1.79-2.9A10.34,10.34,0,0,0,13,17.69a1.41,1.41,0,0,1-.5-.74Z"/><path class="cls-1" d="M12.45,29.34c.77-1.77.59-1.38.81-1.83a4,4,0,0,1,1.42-1.67,4.82,4.82,0,0,1,2.74-.69,6.51,6.51,0,0,1,2.31.4c.25-.39.62-.95,1.11-1.58a8.11,8.11,0,0,1,2-2.12,4.6,4.6,0,0,1,3-.77,9,9,0,0,1,2.38,1,1.39,1.39,0,0,1,.63.55.94.94,0,0,1,.1.85.92.92,0,0,1-.86.42c-.5,0-.57-.44-1.24-.78a3,3,0,0,0-1.38-.29,2.86,2.86,0,0,0-1.51.4,2.76,2.76,0,0,0-.82.71A9.15,9.15,0,0,1,23.36,26a9.94,9.94,0,0,1-1.53,5.14c-1.08,1.79-2.38,2.73-4.38,4.18a29,29,0,0,1-3.61,2.22,1.06,1.06,0,0,1-.52,0c-.18-.06-.3-.16-.67-.61a6,6,0,0,1-.73-1c-.17-.32-.26-.47-.25-.66,0-.36.32-.62.66-.88a15,15,0,0,1,1.58-1.08c.86-.49,1.24-1.28,2-2.85A12.25,12.25,0,0,0,17,26.93a2.34,2.34,0,0,0-1.33.55,6.12,6.12,0,0,0-1.23,2.17,1.63,1.63,0,0,1-.59.84,1.09,1.09,0,0,1-1,.06,1,1,0,0,1-.46-.56A1,1,0,0,1,12.45,29.34Z"/></g></g></svg>