<svg xmlns="http://www.w3.org/2000/svg" width="48.929" height="43.663" viewBox="0 0 48.929 43.663">
  <path id="cart-shopping-solid"
    d="M8.187,0A2.054,2.054,0,0,1,10.2,1.664l.128,1.065H46.2A2.766,2.766,0,0,1,48.831,6.2L44.226,22.573A2.73,2.73,0,0,1,41.6,24.56H14.557l.785,4.093H41.616a2.047,2.047,0,0,1,0,4.093H13.568a2.036,2.036,0,0,1-1.936-1.663L6.493,4.093H2.047A2.047,2.047,0,0,1,2.047,0Zm2.729,39.569a4.093,4.093,0,1,1,4.093,4.093A4.094,4.094,0,0,1,10.916,39.569Zm32.747,0a4.093,4.093,0,1,1-4.093-4.093A4.094,4.094,0,0,1,43.663,39.569Z"
    fill="#eae31a" />
</svg>