<svg xmlns="http://www.w3.org/2000/svg" width="276.739" height="211.593" viewBox="0 0 276.739 211.593">
  <path id="Path_13" data-name="Path 13" d="M139.965,113.763c-25.4,7.286-99.841-5.317-121.9-20.677a60.654,60.654,0,0,1,6.892-1.379c3.938-.591,7.877-.985,11.816-1.772,3.348-.788,4.923-2.757,4.135-5.12-.788-2.954-2.954-3.151-5.514-2.954-10.043.985-20.283,2.166-30.524,3.545-4.726.591-6.1,3.939-3.742,8.271.985,1.772,2.56,3.348,3.545,5.12,7.089,11.225,13.982,22.253,20.874,33.281.591.985.985,2.166,1.772,2.56,1.575.788,3.742,1.772,4.923,1.182a5.316,5.316,0,0,0,2.56-4.332c0-1.772-.985-3.545-1.772-5.317-2.757-4.923-5.908-9.65-8.665-14.573-.788-1.378-1.379-2.757-2.363-4.726a10.755,10.755,0,0,1,2.363.394C60.6,122.034,98.611,125.776,137.208,124.2a67.627,67.627,0,0,0,16.739-2.757,54.655,54.655,0,0,1,20.283-2.363c13.588.591,26.782-1.378,39.386-7.089a60.4,60.4,0,0,0,19.1-13.194c12.21-13.194,15.361-28.555,9.256-45.491-4.923-13.391-14.179-23.828-25.6-32.1C194.711,5.453,170.095-1.046,143.313.136a24.826,24.826,0,0,0-5.514.984c-2.363.394-3.742,1.773-3.545,4.333S136.421,8.8,138.587,8.8c1.181,0,2.56-.2,3.741-.2,20.874-1.182,40.37,3.938,58.684,13.785a78.731,78.731,0,0,1,25.6,22.056c4.332,6.1,7.68,12.6,8.665,20.087,1.575,12.407-2.757,22.844-12.21,30.721-11.815,10.24-25.994,13.785-42.339,14.573,1.181-1.772,1.969-2.954,2.757-3.938a23.58,23.58,0,0,1,2.166-2.363c10.831-12.406,13-27.57,5.514-42.143a51.808,51.808,0,0,0-6.1-9.453c-20.48-23.435-46.277-31.509-76.21-25.6C95.46,29.084,85.81,37.158,82.266,51.14,79.9,60.4,82.069,69.06,86.8,77.135a63.213,63.213,0,0,0,17.133,18.314c9.255,6.892,19.692,12.013,30.523,16.148C136.224,112.188,137.8,112.976,139.965,113.763ZM124.8,32.629c14.572.985,29.736,5.711,40.961,13.588,7.089,4.923,13.194,11.028,17.132,18.905,5.514,11.422,4.333,22.056-4.135,31.509-3.545,3.939-8.271,7.089-12.8,10.043a12.76,12.76,0,0,1-7.089,1.379c-20.48-3.348-39.188-10.634-54.745-24.616A50.643,50.643,0,0,1,93.884,70.242c-7.089-13.588-1.772-27.57,12.407-32.887C112,34.795,118.5,34.2,124.8,32.629Z" transform="translate(276.739 127.798) rotate(160)" fill="gray"/>
</svg>
