<svg xmlns="http://www.w3.org/2000/svg" width="237.56" height="237.592" viewBox="0 0 237.56 237.592">
  <path id="Path_48" data-name="Path 48" d="M228.4,18.732a9.161,9.161,0,1,1,9.161-9.161A9.176,9.176,0,0,1,228.4,18.732Zm9.161,45.649a9.161,9.161,0,1,0-9.161,9.161A9.176,9.176,0,0,0,237.56,64.381Zm0,54.81a9.161,9.161,0,1,0-9.161,9.161A9.176,9.176,0,0,0,237.56,119.19Zm0,54.81a9.161,9.161,0,1,0-9.161,9.161A9.176,9.176,0,0,0,237.56,174Zm0,54.841A9.161,9.161,0,1,0,228.4,238,9.176,9.176,0,0,0,237.56,228.841ZM182.751,9.571a9.161,9.161,0,1,0-9.161,9.161A9.176,9.176,0,0,0,182.751,9.571Zm0,54.81a9.161,9.161,0,1,0-9.161,9.161A9.176,9.176,0,0,0,182.751,64.381Zm0,54.81a9.161,9.161,0,1,0-9.161,9.161A9.176,9.176,0,0,0,182.751,119.19Zm0,54.81a9.161,9.161,0,1,0-9.161,9.161A9.176,9.176,0,0,0,182.751,174Zm0,54.841A9.161,9.161,0,1,0,173.59,238,9.176,9.176,0,0,0,182.751,228.841ZM127.941,9.571a9.161,9.161,0,1,0-9.161,9.161A9.176,9.176,0,0,0,127.941,9.571Zm0,54.81a9.161,9.161,0,1,0-9.161,9.161A9.176,9.176,0,0,0,127.941,64.381Zm0,54.81a9.161,9.161,0,1,0-9.161,9.161A9.176,9.176,0,0,0,127.941,119.19Zm0,54.81a9.161,9.161,0,1,0-9.161,9.161A9.176,9.176,0,0,0,127.941,174Zm0,54.841A9.161,9.161,0,1,0,118.78,238,9.176,9.176,0,0,0,127.941,228.841ZM73.131,9.571a9.161,9.161,0,1,0-9.161,9.161A9.176,9.176,0,0,0,73.131,9.571Zm0,54.81a9.161,9.161,0,1,0-9.161,9.161A9.176,9.176,0,0,0,73.131,64.381Zm0,54.81a9.161,9.161,0,1,0-9.161,9.161A9.176,9.176,0,0,0,73.131,119.19Zm0,54.81a9.161,9.161,0,1,0-9.161,9.161A9.176,9.176,0,0,0,73.131,174Zm0,54.841A9.161,9.161,0,1,0,63.971,238,9.176,9.176,0,0,0,73.131,228.841ZM18.322,9.571a9.161,9.161,0,1,0-9.161,9.161A9.176,9.176,0,0,0,18.322,9.571Zm0,54.81a9.161,9.161,0,1,0-9.161,9.161A9.176,9.176,0,0,0,18.322,64.381Zm0,54.81a9.161,9.161,0,1,0-9.161,9.161A9.176,9.176,0,0,0,18.322,119.19Zm0,54.81a9.161,9.161,0,1,0-9.161,9.161A9.176,9.176,0,0,0,18.322,174Zm0,54.841A9.161,9.161,0,1,0,9.161,238,9.176,9.176,0,0,0,18.322,228.841Z" transform="translate(0 -0.41)" fill="#0a0a0a"/>
</svg>
