<svg xmlns="http://www.w3.org/2000/svg" width="1000" height="736.84" viewBox="0 0 1000 736.84"><g transform="translate(-46 -166.541)" opacity="0.25"><path d="M37.365,32.357,25,19.991,37.365,7.626A4.008,4.008,0,0,0,31.7,1.957L19.331,14.323,6.966,1.957A4.008,4.008,0,1,0,1.3,7.626L13.663,19.991,1.3,32.357a4.008,4.008,0,0,0,5.669,5.669L19.331,25.66,31.7,38.025a4.008,4.008,0,0,0,5.669-5.669Z" transform="translate(87.034 185.123) rotate(-30)" fill="#5f5e63"/><path d="M37.365,32.357,25,19.991,37.365,7.626A4.008,4.008,0,0,0,31.7,1.957L19.331,14.323,6.966,1.957A4.008,4.008,0,1,0,1.3,7.626L13.663,19.991,1.3,32.357a4.008,4.008,0,0,0,5.669,5.669L19.331,25.66,31.7,38.025a4.008,4.008,0,0,0,5.669-5.669Z" transform="matrix(0.391, -0.921, 0.921, 0.391, 686.222, 888.187)" fill="#5f5e63"/><circle cx="11.5" cy="11.5" r="11.5" transform="translate(744.846 207.5)" fill="#9f9f9f"/><circle cx="11.5" cy="11.5" r="11.5" transform="translate(1023 354.026)" fill="#9f9f9f"/><circle cx="11.5" cy="11.5" r="11.5" transform="translate(46 540)" fill="#5f5e63"/><circle cx="18.5" cy="18.5" r="18.5" transform="translate(224.153 816.026)" fill="#9d9d9d"/></g></svg>