<svg xmlns="http://www.w3.org/2000/svg" width="1056.954" height="341" viewBox="0 0 1056.954 341"><g transform="translate(-454 -4925)"><path d="M26,22.719l-8.59-8.59L26,5.539A2.785,2.785,0,1,0,22.059,1.6l-8.59,8.59L4.879,1.6A2.785,2.785,0,0,0,.941,5.539l8.59,8.59-8.59,8.59a2.785,2.785,0,0,0,3.938,3.938l8.59-8.59,8.59,8.59A2.785,2.785,0,0,0,26,22.719Z" transform="matrix(0.391, -0.921, 0.921, 0.391, 471.233, 5006.513)" fill="#a4a3a5"/><path d="M26,22.719l-8.59-8.59L26,5.539A2.785,2.785,0,1,0,22.059,1.6l-8.59,8.59L4.879,1.6A2.785,2.785,0,0,0,.941,5.539l8.59,8.59-8.59,8.59a2.785,2.785,0,0,0,3.938,3.938l8.59-8.59,8.59,8.59A2.785,2.785,0,0,0,26,22.719Z" transform="matrix(0.985, -0.174, 0.174, 0.985, 1479.783, 5220.06)" fill="#a4a3a5"/><circle cx="18.5" cy="18.5" r="18.5" transform="translate(1185 4925)" fill="#cbcbcb"/><circle cx="18.5" cy="18.5" r="18.5" transform="translate(454 5229)" fill="#cbcbcb"/></g></svg>