<svg xmlns="http://www.w3.org/2000/svg" width="170.264" height="14.813" viewBox="0 0 170.264 14.813">
  <g id="Group_29" data-name="Group 29" transform="translate(0.206) rotate(1)">
    <path id="Path_9" data-name="Path 9" d="M3.69,5.932c1.332,0,2.727-.062,4.058-.124.571,0,1.078-.062,1.649-.062l7.229-.371c2.917-.124,5.771-.309,8.687-.433,4.122-.247,8.244-.432,12.365-.68.951-.062,1.9-.062,2.854-.124,2.41-.124,4.819-.247,7.229-.309,2.41-.124,4.819-.247,7.229-.309.951-.062,1.9-.124,2.854-.124l11.478-.371c2.346-.062,4.692-.124,7.1-.247.951,0,1.839-.062,2.79-.062l11.1-.185,10.97-.185h10.083c3.741,0,7.419,0,11.16-.062h11.858c-5.707.062-11.478.124-17.185.247-2.41.062-4.756.062-7.166.124-1.015,0-2.093,0-3.107.062-3.487.062-6.912.185-10.4.247-3.995.124-7.99.185-11.985.309-.7,0-1.332.062-2.029.062-2.156.124-4.249.185-6.4.309L63.171,4.2c-.634,0-1.268.062-1.9.124-2.092.124-4.249.309-6.341.433-3.8.247-7.546.494-11.351.741-1.015.062-2.093.185-3.107.247-2.41.185-4.819.371-7.229.618-3.044.247-6.151.494-9.195.741-4.249.371-8.561.741-12.809,1.112-1.015.062-2.029.185-3.107.247l-5.517.556a.361.361,0,0,0-.38.371.4.4,0,0,0,.38.371c.7,0,1.332.062,2.029.062a1.837,1.837,0,0,0-.19.68,1.322,1.322,0,0,0,1.332,1.3c5.263-.309,10.463-.68,15.726-.927,4.566-.185,9.131-.432,13.7-.618,5.01-.247,10.082-.494,15.092-.68,1.585-.062,3.17-.124,4.756-.247.444,0,.888-.062,1.4-.062,8.117-.185,16.234-.433,24.35-.618,4.312-.124,8.687-.247,13-.309,1.586-.062,3.107-.062,4.693-.124l24.921-.371,10.653-.185c3.044-.062,6.088-.062,9.131-.185,2.536-.062,5.009-.185,7.546-.247,1.268-.062,2.536-.062,3.741-.124l8.561-.556a1.063,1.063,0,0,0-.127.865.9.9,0,0,0,.571.68,1.138,1.138,0,0,0,.888.124c.634-.247,1.268-.494,1.839-.741h-.064c.064,0,.064-.062.127-.062a.222.222,0,0,0,.127-.062h-.064c.317-.124.634-.247,1.015-.432.317-.124.7-.309,1.015-.433.381-.185.7-.371,1.078-.556a1.291,1.291,0,0,0,.634-1.112,1.382,1.382,0,0,0-.19-.68,1.263,1.263,0,0,0-.761-.618,5.018,5.018,0,0,0-.951-.124h-.19a2.213,2.213,0,0,0-.634.062,11.606,11.606,0,0,1-1.458.124c-.38,0-.761.062-1.2.062-1.078.062-2.093.124-3.171.247-.253,0-.571.062-.824.062a.528.528,0,0,0,.19-.371.765.765,0,0,0,.064-.371.364.364,0,0,1,.064-.247.453.453,0,0,0-.064-.309.062.062,0,0,0,.064-.062,1.281,1.281,0,0,0,.507-.494,1.22,1.22,0,0,0,.19-.68,1.379,1.379,0,0,0-.19-.68c-.063-.062-.127-.185-.19-.247a1.306,1.306,0,0,0-.571-.309A4.188,4.188,0,0,0,159.494,0H138.758c-6.532,0-13,.062-19.531.124-4.883.062-9.766.124-14.648.124-2.156,0-4.375.062-6.532.124C93.165.494,88.282.556,83.4.68c-1.4,0-2.79.062-4.185.062C78.39.741,77.629.8,76.8.8l-14.458.556c-1.459.062-2.917.124-4.439.185-.824,0-1.649.062-2.473.124-4.819.247-9.575.494-14.395.741-2.473.124-4.946.247-7.419.433-4.249.247-8.5.494-12.682.8-3.678.247-7.356.433-11.034.618-.571.062-1.141.062-1.776.124-.951.062-1.9.062-2.854.124a8.847,8.847,0,0,1-2.536.247c-.063-.247-.317-.433-.507-.371a14.8,14.8,0,0,0-1.649.124.7.7,0,0,0-.571.432.582.582,0,0,0,.38.68l.761.185a2.667,2.667,0,0,0,.7.062A18.287,18.287,0,0,0,3.69,5.932ZM152.075,3.955h2.346a1.112,1.112,0,0,0,.317.432c-.317,0-.634.062-.888.062-.571,0-1.141.062-1.712.062-2.537.062-5.009.185-7.546.247-1.141.062-2.283.124-3.424.124-1.775,0-3.614.062-5.39.062l-12.3.185L99.569,5.5c-5.707.062-11.414.247-17.121.433-8.561.247-17.185.433-25.745.68-1.712.062-3.424.124-5.137.247-4.882.247-9.765.432-14.648.68-4.756.247-9.575.433-14.331.68-.444,0-.888.062-1.332.062,1.268-.124,2.6-.185,3.868-.309,4.5-.309,9-.68,13.507-.989,1.586-.124,3.171-.247,4.693-.371.824-.062,1.649-.124,2.41-.124,4.756-.247,9.448-.556,14.141-.8.888-.062,1.839-.124,2.727-.185,1.332-.062,2.663-.124,3.931-.124L80.99,4.82c1.078-.062,2.156-.062,3.171-.124h.824c.761,0,1.522,0,2.219-.062,4.819-.124,9.7-.185,14.521-.309,2.219-.062,4.439-.124,6.658-.124l21.56-.185C137.427,4.016,144.782,3.955,152.075,3.955Z" transform="translate(0 0)" fill="#989898"/>
    <path id="Path_10" data-name="Path 10" d="M37.347,40.694A.347.347,0,1,0,37,40.347.347.347,0,0,0,37.347,40.694Z" transform="translate(-24.157 -26.116)" fill="#989898"/>
  </g>
</svg>
