<svg id="Group_32" data-name="Group 32" xmlns="http://www.w3.org/2000/svg" width="296.472" height="42" viewBox="0 0 296.472 42">
  <path id="Path_11" data-name="Path 11" d="M6.432,17.089c2.321,0,4.753-.178,7.074-.356.995,0,1.879-.178,2.874-.178l12.6-1.068c5.085-.356,10.059-.89,15.143-1.246,7.185-.712,14.369-1.246,21.554-1.958,1.658-.178,3.316-.178,4.974-.356,4.2-.356,8.4-.712,12.6-.89,4.2-.356,8.4-.712,12.6-.89a46.73,46.73,0,0,1,4.974-.356c6.632-.356,13.374-.712,20.007-1.068,4.089-.178,8.179-.356,12.379-.712,1.658,0,3.206-.178,4.864-.178,6.41-.178,12.932-.356,19.343-.534s12.711-.356,19.122-.534h17.575c6.521,0,12.932,0,19.453-.178h20.67c-9.948.178-20.007.356-29.955.712-4.2.178-8.29.178-12.491.356-1.769,0-3.648,0-5.416.178-6.079.178-12.048.534-18.127.712-6.963.356-13.928.534-20.891.89-1.216,0-2.321.178-3.537.178-3.758.356-7.406.534-11.164.89l-22.549,1.6a20.985,20.985,0,0,0-3.316.356c-3.647.356-7.406.89-11.053,1.246-6.632.712-13.154,1.424-19.786,2.136-1.769.178-3.648.534-5.416.712-4.2.534-8.4,1.068-12.6,1.78-5.306.712-10.722,1.424-16.027,2.136-7.406,1.068-14.922,2.136-22.328,3.2-1.769.178-3.537.534-5.416.712l-9.616,1.6c-.332,0-.663.356-.663,1.068,0,.534.332,1.068.663,1.068,1.216,0,2.321.178,3.537.178a8.145,8.145,0,0,0-.332,1.958C7.759,32.22,8.754,34,10.08,34c9.174-.89,18.238-1.958,27.412-2.67,7.958-.534,15.917-1.246,23.875-1.78,8.733-.712,17.575-1.424,26.307-1.958,2.763-.178,5.526-.356,8.29-.712.774,0,1.548-.178,2.432-.178,14.148-.534,28.3-1.246,42.445-1.78,7.516-.356,15.143-.712,22.659-.89,2.764-.178,5.416-.178,8.18-.356l43.44-1.068,18.569-.534c5.306-.178,10.611-.178,15.917-.534,4.421-.178,8.732-.534,13.154-.712,2.21-.178,4.421-.178,6.521-.356l14.922-1.6a4.825,4.825,0,0,0-.221,2.492,2.627,2.627,0,0,0,1,1.958c.442.356,1.1.712,1.547.356,1.105-.712,2.211-1.424,3.206-2.136h-.111c.111,0,.111-.178.221-.178s.221-.178.221-.178h-.111a18.938,18.938,0,0,0,1.769-1.246c.553-.356,1.216-.89,1.769-1.246.664-.534,1.216-1.068,1.879-1.6a4.576,4.576,0,0,0,1.105-3.2,6.078,6.078,0,0,0-.332-1.958,2.9,2.9,0,0,0-1.326-1.78,5.541,5.541,0,0,0-1.658-.356h-.332a2.411,2.411,0,0,0-1.105.178,12.488,12.488,0,0,1-2.542.356c-.663,0-1.327.178-2.1.178-1.879.178-3.648.356-5.527.712-.442,0-.995.178-1.437.178a2.008,2.008,0,0,0,.332-1.068,3.511,3.511,0,0,0,.111-1.068,1.6,1.6,0,0,1,.111-.712,2.022,2.022,0,0,0-.111-.89s.111,0,.111-.178a3.337,3.337,0,0,0,.884-1.424,5.332,5.332,0,0,0,.332-1.958,6.061,6.061,0,0,0-.332-1.958c-.11-.178-.221-.534-.332-.712a2.25,2.25,0,0,0-.995-.89A4.7,4.7,0,0,0,278.012,0H241.868c-11.385,0-22.66.178-34.044.356-8.511.178-17.022.356-25.533.356-3.758,0-7.627.178-11.385.356-8.511.356-17.022.534-25.533.89-2.432,0-4.863.178-7.3.178-1.437,0-2.764.178-4.2.178l-25.2,1.6c-2.542.178-5.085.356-7.737.534a35.19,35.19,0,0,0-4.311.356c-8.4.712-16.69,1.424-25.091,2.136-4.31.356-8.621.712-12.932,1.246C51.2,8.9,43.793,9.613,36.5,10.5c-6.411.712-12.822,1.246-19.233,1.78-.995.178-1.99.178-3.095.356-1.658.178-3.316.178-4.974.356a9.639,9.639,0,0,1-4.421.712c-.111-.712-.553-1.246-.884-1.068a15.857,15.857,0,0,0-2.874.356,1.53,1.53,0,0,0-.995,1.246c-.111.89.221,1.78.663,1.958l1.326.534a2.89,2.89,0,0,0,1.216.178A19.364,19.364,0,0,0,6.432,17.089Zm258.648-5.7h4.09a3.6,3.6,0,0,0,.553,1.246c-.553,0-1.105.178-1.548.178-.995,0-1.989.178-2.984.178-4.422.178-8.732.534-13.154.712-1.989.178-3.979.356-5.969.356-3.095,0-6.3.178-9.4.178l-21.443.534-41.671,1.068c-9.948.178-19.9.712-29.844,1.246-14.922.712-29.955,1.246-44.877,1.958-2.985.178-5.969.356-8.953.712-8.511.712-17.022,1.246-25.533,1.958-8.29.712-16.691,1.246-24.981,1.958-.774,0-1.547.178-2.321.178,2.211-.356,4.532-.534,6.743-.89,7.848-.89,15.7-1.958,23.543-2.848,2.764-.356,5.527-.712,8.18-1.068a35.266,35.266,0,0,1,4.2-.356c8.29-.712,16.469-1.6,24.649-2.314,1.548-.178,3.206-.356,4.753-.534,2.321-.178,4.643-.356,6.853-.356l25.2-1.6c1.879-.178,3.758-.178,5.526-.356h1.437A27.362,27.362,0,0,0,152,13.351c8.4-.356,16.912-.534,25.312-.89,3.869-.178,7.737-.356,11.606-.356l37.582-.534C239.547,11.571,252.369,11.393,265.08,11.393Z" transform="translate(0)" fill="#eae31a"/>
  <path id="Path_12" data-name="Path 12" d="M38,42a1,1,0,1,0-1-1A1,1,0,0,0,38,42Z" fill="#eae31a"/>
</svg>
