<svg id="Group_30" data-name="Group 30" xmlns="http://www.w3.org/2000/svg" width="490" height="42" viewBox="0 0 490 42">
  <path id="Path_11" data-name="Path 11" d="M10.631,17.089c3.836,0,7.856-.178,11.692-.356,1.644,0,3.106-.178,4.75-.178L47.9,15.487c8.4-.356,16.624-.89,25.028-1.246,11.875-.712,23.749-1.246,35.624-1.958,2.74-.178,5.481-.178,8.221-.356,6.942-.356,13.884-.712,20.826-.89,6.942-.356,13.884-.712,20.826-.89,2.741-.178,5.481-.356,8.221-.356,10.961-.356,22.1-.712,33.067-1.068,6.759-.178,13.518-.356,20.46-.712,2.741,0,5.3-.178,8.039-.178,10.6-.178,21.374-.356,31.97-.534s21.009-.356,31.6-.534h29.048c10.778,0,21.374,0,32.152-.178h34.163c-16.442.178-33.067.356-49.508.712-6.942.178-13.7.178-20.644.356-2.923,0-6.029,0-8.952.178-10.047.178-19.912.534-29.96.712-11.509.356-23.019.534-34.528.89-2.009,0-3.836.178-5.846.178-6.211.356-12.24.534-18.451.89l-37.268,1.6c-1.827,0-3.654.178-5.481.356-6.028.356-12.24.89-18.268,1.246-10.961.712-21.74,1.424-32.7,2.136-2.923.178-6.029.534-8.952.712-6.942.534-13.884,1.068-20.826,1.78-8.769.712-17.721,1.424-26.49,2.136-12.24,1.068-24.663,2.136-36.9,3.2-2.923.178-5.846.534-8.952.712L7.526,25.99a1.041,1.041,0,0,0-1.1,1.068,1.164,1.164,0,0,0,1.1,1.068c2.01,0,3.836.178,5.846.178a5.293,5.293,0,0,0-.548,1.958A3.81,3.81,0,0,0,16.66,34c15.163-.89,30.143-1.958,45.306-2.67,13.153-.534,26.307-1.246,39.46-1.78,14.433-.712,29.047-1.424,43.48-1.958,4.567-.178,9.134-.356,13.7-.712,1.279,0,2.558-.178,4.019-.178,23.384-.534,46.768-1.246,70.152-1.78,12.422-.356,25.028-.712,37.45-.89,4.568-.178,8.952-.178,13.519-.356l71.8-1.068,30.691-.534c8.769-.178,17.538-.178,26.307-.534,7.307-.178,14.432-.534,21.74-.712,3.653-.178,7.307-.178,10.778-.356l24.663-1.6a3.061,3.061,0,0,0-.366,2.492A2.583,2.583,0,0,0,471,23.319a3.28,3.28,0,0,0,2.557.356c1.827-.712,3.654-1.424,5.3-2.136h-.183c.183,0,.183-.178.366-.178a.64.64,0,0,0,.365-.178h-.183c.914-.356,1.827-.712,2.923-1.246.914-.356,2.01-.89,2.923-1.246,1.1-.534,2.01-1.068,3.106-1.6a3.719,3.719,0,0,0,1.827-3.2,3.982,3.982,0,0,0-.548-1.958,3.638,3.638,0,0,0-2.192-1.78,14.459,14.459,0,0,0-2.741-.356h-.548a6.376,6.376,0,0,0-1.827.178,33.438,33.438,0,0,1-4.2.356c-1.1,0-2.193.178-3.471.178-3.106.178-6.029.356-9.135.712-.73,0-1.644.178-2.375.178a1.522,1.522,0,0,0,.548-1.068,2.2,2.2,0,0,0,.183-1.068,1.048,1.048,0,0,1,.183-.712,1.3,1.3,0,0,0-.183-.89.178.178,0,0,0,.183-.178,3.691,3.691,0,0,0,1.461-1.424,3.514,3.514,0,0,0,.548-1.958,3.971,3.971,0,0,0-.548-1.958c-.182-.178-.365-.534-.548-.712a3.763,3.763,0,0,0-1.644-.89A12.065,12.065,0,0,0,459.491,0H399.753C380.936,0,362.3.178,343.486.356c-14.067.178-28.134.356-42.2.356-6.211,0-12.605.178-18.817.356-14.066.356-28.133.534-42.2.89-4.019,0-8.038.178-12.057.178-2.375,0-4.568.178-6.943.178l-41.652,1.6c-4.2.178-8.4.356-12.788.534-2.375,0-4.75.178-7.125.356-13.884.712-27.585,1.424-41.47,2.136-7.124.356-14.249.712-21.374,1.246C84.619,8.9,72.379,9.613,60.322,10.5c-10.6.712-21.192,1.246-31.787,1.78-1.644.178-3.288.178-5.115.356-2.74.178-5.481.178-8.221.356a25.488,25.488,0,0,1-7.307.712c-.183-.712-.913-1.246-1.461-1.068a42.639,42.639,0,0,0-4.75.356A2.014,2.014,0,0,0,.035,14.241a1.677,1.677,0,0,0,1.1,1.958l2.192.534a7.685,7.685,0,0,0,2.01.178A52.683,52.683,0,0,0,10.631,17.089Zm427.486-5.7h6.759a3.2,3.2,0,0,0,.914,1.246c-.914,0-1.827.178-2.558.178-1.644,0-3.288.178-4.932.178-7.308.178-14.432.534-21.74.712-3.288.178-6.577.356-9.865.356-5.115,0-10.413.178-15.528.178l-35.441.534-68.873,1.068c-16.442.178-32.884.712-49.325,1.246-24.663.712-49.508,1.246-74.171,1.958-4.933.178-9.865.356-14.8.712-14.066.712-28.133,1.246-42.2,1.958-13.7.712-27.586,1.246-41.287,1.958-1.279,0-2.558.178-3.836.178,3.654-.356,7.49-.534,11.144-.89,12.971-.89,25.941-1.958,38.912-2.848,4.568-.356,9.135-.712,13.519-1.068,2.375-.178,4.75-.356,6.942-.356,13.7-.712,27.22-1.6,40.739-2.314,2.558-.178,5.3-.356,7.856-.534,3.836-.178,7.673-.356,11.326-.356l41.653-1.6c3.1-.178,6.211-.178,9.134-.356h2.375c2.192,0,4.384,0,6.394-.178,13.884-.356,27.951-.534,41.835-.89,6.394-.178,12.788-.356,19.182-.356l62.114-.534C395.917,11.571,417.108,11.393,438.117,11.393Z" fill="#79787d"/>
  <path id="Path_12" data-name="Path 12" d="M38,42a1,1,0,1,0-1-1A1,1,0,0,0,38,42Z" fill="#79787d"/>
</svg>
