<svg id="Group_52" data-name="Group 52" xmlns="http://www.w3.org/2000/svg" width="291.48" height="36.52" viewBox="0 0 291.48 36.52">
  <path id="Path_11" data-name="Path 11" d="M6.324,14.334c2.282,0,4.673-.149,6.955-.3.978,0,1.847-.149,2.826-.149l12.389-.9c5-.3,9.889-.747,14.888-1.045,7.064-.6,14.127-1.045,21.191-1.642,1.63-.149,3.26-.149,4.89-.3,4.13-.3,8.259-.6,12.389-.747,4.13-.3,8.259-.6,12.389-.747,1.631-.149,3.26-.3,4.89-.3,6.52-.3,13.149-.6,19.67-.9,4.021-.149,8.041-.3,12.171-.6,1.631,0,3.152-.149,4.782-.149l19.018-.448,18.8-.448H190.85c6.411,0,12.714,0,19.126-.149H230.3c-9.781.149-19.67.3-29.45.6-4.13.149-8.151.149-12.28.3-1.739,0-3.586,0-5.325.149-5.977.149-11.845.448-17.822.6-6.846.3-13.693.448-20.539.747-1.2,0-2.282.149-3.478.149-3.695.3-7.281.448-10.976.747l-22.169,1.344a24.059,24.059,0,0,0-3.26.3c-3.586.3-7.281.747-10.867,1.045-6.52.6-12.932,1.195-19.452,1.792-1.739.149-3.586.448-5.325.6-4.13.448-8.259.9-12.389,1.493-5.216.6-10.541,1.195-15.757,1.792-7.281.9-14.671,1.792-21.952,2.688-1.739.149-3.478.448-5.325.6L4.477,21.8c-.326,0-.652.3-.652.9,0,.448.326.9.652.9,1.2,0,2.282.149,3.478.149a5.922,5.922,0,0,0-.326,1.642c0,1.642.978,3.136,2.282,3.136,9.02-.747,17.931-1.642,26.951-2.24,7.824-.448,15.649-1.045,23.473-1.493,8.586-.6,17.279-1.194,25.864-1.642,2.717-.149,5.433-.3,8.15-.6.761,0,1.522-.149,2.391-.149,13.91-.448,27.82-1.045,41.73-1.493,7.389-.3,14.888-.6,22.277-.747,2.717-.149,5.325-.149,8.042-.3l42.708-.9,18.257-.448c5.216-.149,10.433-.149,15.649-.448,4.347-.149,8.585-.448,12.932-.6,2.173-.149,4.347-.149,6.411-.3l14.671-1.344a3.49,3.49,0,0,0-.218,2.09,2.127,2.127,0,0,0,.979,1.642c.434.3,1.086.6,1.521.3,1.087-.6,2.174-1.195,3.152-1.792h-.109c.109,0,.109-.149.218-.149s.217-.149.217-.149h-.109a18.943,18.943,0,0,0,1.739-1.045c.544-.3,1.2-.747,1.739-1.045.653-.448,1.2-.9,1.848-1.344a3.518,3.518,0,0,0,1.087-2.688A4.427,4.427,0,0,0,291.154,10a2.521,2.521,0,0,0-1.3-1.493,6.263,6.263,0,0,0-1.63-.3h-.326a2.74,2.74,0,0,0-1.087.149,14.269,14.269,0,0,1-2.5.3c-.652,0-1.3.149-2.065.149-1.848.149-3.586.3-5.434.6-.434,0-.978.149-1.413.149a1.515,1.515,0,0,0,.326-.9,2.532,2.532,0,0,0,.109-.9,1.167,1.167,0,0,1,.109-.6,1.468,1.468,0,0,0-.109-.747s.109,0,.109-.149a2.786,2.786,0,0,0,.869-1.195,3.889,3.889,0,0,0,.326-1.642,4.415,4.415,0,0,0-.326-1.642c-.108-.149-.217-.448-.326-.6a2.145,2.145,0,0,0-.978-.747A5.278,5.278,0,0,0,273.332,0H237.8C226.6,0,215.518.149,204.325.3c-8.368.149-16.736.3-25.1.3-3.695,0-7.5.149-11.193.3-8.367.3-16.735.448-25.1.747-2.391,0-4.781.149-7.172.149-1.413,0-2.717.149-4.13.149L106.846,3.285c-2.5.149-5,.3-7.607.448a40.429,40.429,0,0,0-4.238.3c-8.259.6-16.409,1.195-24.669,1.792-4.238.3-8.476.6-12.714,1.045-7.281.6-14.562,1.195-21.734,1.941-6.3.6-12.606,1.045-18.909,1.493-.978.149-1.956.149-3.043.3-1.63.149-3.26.149-4.89.3a10.955,10.955,0,0,1-4.347.6c-.109-.6-.543-1.045-.869-.9A18.15,18.15,0,0,0,1,10.9a1.354,1.354,0,0,0-.978,1.045,1.544,1.544,0,0,0,.652,1.643l1.3.448a3.293,3.293,0,0,0,1.2.149A22.276,22.276,0,0,0,6.324,14.334ZM260.617,9.556h4.021a2.828,2.828,0,0,0,.544,1.045c-.544,0-1.087.149-1.522.149-.978,0-1.956.149-2.934.149-4.347.149-8.585.448-12.932.6-1.956.149-3.912.3-5.868.3-3.043,0-6.194.149-9.237.149l-21.082.448-40.97.9c-9.781.149-19.561.6-29.341,1.045-14.671.6-29.45,1.045-44.121,1.642-2.934.149-5.868.3-8.8.6-8.367.6-16.735,1.045-25.1,1.642-8.151.6-16.41,1.045-24.56,1.642-.761,0-1.521.149-2.282.149,2.173-.3,4.456-.448,6.629-.747,7.716-.747,15.431-1.642,23.147-2.389,2.717-.3,5.434-.6,8.042-.9a40.513,40.513,0,0,1,4.13-.3c8.151-.6,16.192-1.344,24.234-1.941,1.522-.149,3.152-.3,4.673-.448,2.282-.149,4.564-.3,6.737-.3L138.8,11.647c1.847-.149,3.695-.149,5.433-.3h1.413a31.492,31.492,0,0,0,3.8-.149c8.259-.3,16.627-.448,24.886-.747,3.8-.149,7.607-.3,11.411-.3l36.949-.448C235.514,9.706,248.12,9.556,260.617,9.556Z" transform="translate(0 0)" fill="#171717"/>
  <path id="Path_12" data-name="Path 12" d="M38,42a1,1,0,1,0-1-1A1,1,0,0,0,38,42Z" transform="translate(0 -5.48)" fill="#171717"/>
</svg>
