<svg xmlns="http://www.w3.org/2000/svg" width="934" height="683.017" viewBox="0 0 934 683.017">
  <g transform="translate(-482 -203.5)">
    <g transform="translate(436.301 36.959)" opacity="0.3">
      <path
        d="M37.236,31.567,24.87,19.2,37.236,6.836a4.008,4.008,0,0,0-5.669-5.669L19.2,13.533,6.836,1.167A4.008,4.008,0,1,0,1.167,6.836L13.533,19.2,1.167,31.567a4.008,4.008,0,1,0,5.669,5.669L19.2,24.87,31.567,37.235a4.008,4.008,0,0,0,5.669-5.669Z"
        transform="translate(87.541 185.742) rotate(-30)" fill="#5f5e63" />
      <path
        d="M37.236,31.567,24.87,19.2,37.236,6.836a4.008,4.008,0,0,0-5.669-5.669L19.2,13.533,6.836,1.167A4.008,4.008,0,1,0,1.167,6.836L13.533,19.2,1.167,31.567a4.008,4.008,0,1,0,5.669,5.669L19.2,24.87,31.567,37.235a4.008,4.008,0,0,0,5.669-5.669Z"
        transform="matrix(0.391, -0.921, 0.921, 0.391, 642.197, 834.553)" fill="#5f5e63" />
      <circle cx="11.5" cy="11.5" r="11.5" transform="translate(697.377 207.5)" fill="#9f9f9f" />
      <circle cx="11.5" cy="11.5" r="11.5" transform="translate(956.699 339.89)" fill="#9f9f9f" />
      <circle cx="11.5" cy="11.5" r="11.5" transform="translate(45.699 513.041)" fill="#5f5e63" />
      <circle cx="18.5" cy="18.5" r="18.5" transform="translate(211.761 762.203)" fill="#9d9d9d" />
    </g>
    <path
      d="M108.325,9.1a4.345,4.345,0,1,1,4.345-4.345A4.352,4.352,0,0,1,108.325,9.1Zm4.345,21.65a4.345,4.345,0,1,0-4.345,4.345A4.352,4.352,0,0,0,112.67,30.75Zm0,26a4.345,4.345,0,1,0-4.345,4.345A4.352,4.352,0,0,0,112.67,56.745Zm0,26a4.345,4.345,0,1,0-4.345,4.345A4.352,4.352,0,0,0,112.67,82.74Zm0,26.01a4.345,4.345,0,1,0-4.345,4.345A4.352,4.352,0,0,0,112.67,108.75Zm-26-104A4.345,4.345,0,1,0,82.33,9.1,4.352,4.352,0,0,0,86.675,4.755Zm0,26a4.345,4.345,0,1,0-4.345,4.345A4.352,4.352,0,0,0,86.675,30.75Zm0,26A4.345,4.345,0,1,0,82.33,61.09,4.352,4.352,0,0,0,86.675,56.745Zm0,26a4.345,4.345,0,1,0-4.345,4.345A4.352,4.352,0,0,0,86.675,82.74Zm0,26.01A4.345,4.345,0,1,0,82.33,113.1,4.352,4.352,0,0,0,86.675,108.75Zm-26-104A4.345,4.345,0,1,0,56.335,9.1,4.352,4.352,0,0,0,60.68,4.755Zm0,26a4.345,4.345,0,1,0-4.345,4.345A4.352,4.352,0,0,0,60.68,30.75Zm0,26a4.345,4.345,0,1,0-4.345,4.345A4.352,4.352,0,0,0,60.68,56.745Zm0,26a4.345,4.345,0,1,0-4.345,4.345A4.352,4.352,0,0,0,60.68,82.74Zm0,26.01a4.345,4.345,0,1,0-4.345,4.345A4.352,4.352,0,0,0,60.68,108.75Zm-26-104A4.345,4.345,0,1,0,30.34,9.1,4.352,4.352,0,0,0,34.685,4.755Zm0,26a4.345,4.345,0,1,0-4.345,4.345A4.352,4.352,0,0,0,34.685,30.75Zm0,26A4.345,4.345,0,1,0,30.34,61.09,4.352,4.352,0,0,0,34.685,56.745Zm0,26a4.345,4.345,0,1,0-4.345,4.345A4.352,4.352,0,0,0,34.685,82.74Zm0,26.01A4.345,4.345,0,1,0,30.34,113.1,4.352,4.352,0,0,0,34.685,108.75Zm-26-104A4.345,4.345,0,1,0,4.345,9.1,4.352,4.352,0,0,0,8.69,4.755Zm0,26a4.345,4.345,0,1,0-4.345,4.345A4.352,4.352,0,0,0,8.69,30.75Zm0,26A4.345,4.345,0,1,0,4.345,61.09,4.352,4.352,0,0,0,8.69,56.745Zm0,26a4.345,4.345,0,1,0-4.345,4.345A4.352,4.352,0,0,0,8.69,82.74Zm0,26.01A4.345,4.345,0,1,0,4.345,113.1,4.352,4.352,0,0,0,8.69,108.75Z"
      transform="translate(647.234 239.36) rotate(45)" fill="#5f5e63" />
    <path
      d="M108.325,9.1a4.345,4.345,0,1,1,4.345-4.345A4.352,4.352,0,0,1,108.325,9.1Zm4.345,21.65a4.345,4.345,0,1,0-4.345,4.345A4.352,4.352,0,0,0,112.67,30.75Zm0,26a4.345,4.345,0,1,0-4.345,4.345A4.352,4.352,0,0,0,112.67,56.745Zm0,26a4.345,4.345,0,1,0-4.345,4.345A4.352,4.352,0,0,0,112.67,82.74Zm0,26.01a4.345,4.345,0,1,0-4.345,4.345A4.352,4.352,0,0,0,112.67,108.75Zm-26-104A4.345,4.345,0,1,0,82.33,9.1,4.352,4.352,0,0,0,86.675,4.755Zm0,26a4.345,4.345,0,1,0-4.345,4.345A4.352,4.352,0,0,0,86.675,30.75Zm0,26A4.345,4.345,0,1,0,82.33,61.09,4.352,4.352,0,0,0,86.675,56.745Zm0,26a4.345,4.345,0,1,0-4.345,4.345A4.352,4.352,0,0,0,86.675,82.74Zm0,26.01A4.345,4.345,0,1,0,82.33,113.1,4.352,4.352,0,0,0,86.675,108.75Zm-26-104A4.345,4.345,0,1,0,56.335,9.1,4.352,4.352,0,0,0,60.68,4.755Zm0,26a4.345,4.345,0,1,0-4.345,4.345A4.352,4.352,0,0,0,60.68,30.75Zm0,26a4.345,4.345,0,1,0-4.345,4.345A4.352,4.352,0,0,0,60.68,56.745Zm0,26a4.345,4.345,0,1,0-4.345,4.345A4.352,4.352,0,0,0,60.68,82.74Zm0,26.01a4.345,4.345,0,1,0-4.345,4.345A4.352,4.352,0,0,0,60.68,108.75Zm-26-104A4.345,4.345,0,1,0,30.34,9.1,4.352,4.352,0,0,0,34.685,4.755Zm0,26a4.345,4.345,0,1,0-4.345,4.345A4.352,4.352,0,0,0,34.685,30.75Zm0,26A4.345,4.345,0,1,0,30.34,61.09,4.352,4.352,0,0,0,34.685,56.745Zm0,26a4.345,4.345,0,1,0-4.345,4.345A4.352,4.352,0,0,0,34.685,82.74Zm0,26.01A4.345,4.345,0,1,0,30.34,113.1,4.352,4.352,0,0,0,34.685,108.75Zm-26-104A4.345,4.345,0,1,0,4.345,9.1,4.352,4.352,0,0,0,8.69,4.755Zm0,26a4.345,4.345,0,1,0-4.345,4.345A4.352,4.352,0,0,0,8.69,30.75Zm0,26A4.345,4.345,0,1,0,4.345,61.09,4.352,4.352,0,0,0,8.69,56.745Zm0,26a4.345,4.345,0,1,0-4.345,4.345A4.352,4.352,0,0,0,8.69,82.74Zm0,26.01A4.345,4.345,0,1,0,4.345,113.1,4.352,4.352,0,0,0,8.69,108.75Z"
      transform="translate(1348.753 629.665) rotate(90)" fill="#5f5e63" />
  </g>
</svg>